# MagicaVoxel @ Ephtracy

# group
o 

# material
mtllib maids1.mtl
usemtl palette

# normals
vn -1 0 0
vn 1 0 0
vn 0 0 1
vn 0 0 -1
vn 0 -1 0
vn 0 1 0

# texcoords
vt 0.0332031 0.5
vt 0.0371094 0.5
vt 0.701172 0.5
vt 0.826172 0.5
vt 0.833984 0.5
vt 0.841797 0.5
vt 0.861328 0.5
vt 0.873047 0.5
vt 0.876953 0.5
vt 0.955078 0.5
vt 0.958984 0.5
vt 0.994141 0.5

# verts
v -1.5 0.8 0.1
v -1.5 0.8 0
v -1.5 0.9 0.1
v -1.5 0.9 0
v -1.4 0.8 -0.1
v -1.4 0.8 -0.3
v -1.4 0.9 -0.2
v -1.4 0.9 -0.3
v -1.4 1 0.4
v -1.4 1 -0.1
v -1.4 1.3 -0.1
v -1.4 1.3 -0.2
v -1.4 1.5 0.4
v -1.4 1.5 0.3
v -1.4 1.5 0.2
v -1.4 1.5 -0.1
v -1.4 1.6 0.3
v -1.4 1.6 0.2
v -1.3 0.9 -0.2
v -1.3 0.9 -0.3
v -1.3 1.3 -0.1
v -1.3 1.3 -0.2
v -1.3 1.3 -0.3
v -1.3 1.5 0.4
v -1.3 1.5 0.3
v -1.3 1.5 0.2
v -1.3 1.5 -0.1
v -1.3 1.5 -0.2
v -1.3 1.6 0.4
v -1.3 1.6 0.3
v -1.3 1.6 0.2
v -1.3 1.6 -0.1
v -1.3 1.7 0.3
v -1.3 1.7 0.2
v -1.2 0.4 0.2
v -1.2 0.4 0.1
v -1.2 0.4 0
v -1.2 0.4 -0.1
v -1.2 0.6 0.1
v -1.2 0.6 0
v -1.2 0.8 0.2
v -1.2 0.8 0.1
v -1.2 0.8 0
v -1.2 0.8 -0.1
v -1.2 0.9 0.2
v -1.2 0.9 0.1
v -1.2 0.9 0
v -1.2 0.9 -0.1
v -1.2 1.3 -0.2
v -1.2 1.3 -0.3
v -1.2 1.5 -0.1
v -1.2 1.5 -0.2
v -1.2 1.5 -0.3
v -1.2 1.6 0.4
v -1.2 1.6 0.3
v -1.2 1.6 0.2
v -1.2 1.6 -0.1
v -1.2 1.6 -0.2
v -1.2 1.7 0.4
v -1.2 1.7 0.3
v -1.2 1.7 0.2
v -1.2 1.7 -0.1
v -1.1 0 0.1
v -1.1 0 0
v -1.1 0.2 0.1
v -1.1 0.2 0
v -1.1 0.4 0.1
v -1.1 0.4 0
v -1 0.9 0.1
v -1 0.9 0
v -1 1 0.1
v -1 1 0
v -0.9 0 0.1
v -0.9 0 0
v -0.9 0.2 0.1
v -0.9 0.2 0
v -0.9 0.4 0.1
v -0.9 0.4 0
v -0.8 0.3 0.2
v -0.8 0.3 0.1
v -0.8 0.3 0
v -0.8 0.3 -0.1
v -0.8 0.4 0.2
v -0.8 0.4 0.1
v -0.8 0.4 0
v -0.8 0.4 -0.1
v -0.6 0.8 -0.1
v -0.6 0.8 -0.2
v -0.6 0.9 -0.1
v -0.6 0.9 -0.2
v -0.6 1 0.4
v -0.6 1 0.3
v -0.6 1.3 0.4
v -0.6 1.3 0.3
v -1.3 1 0.4
v -1.3 1 0.3
v -1.3 1.3 0.4
v -1.3 1.3 0.3
v -1.2 0.8 -0.1
v -1.2 0.8 -0.2
v -1.2 0.9 -0.1
v -1.2 0.9 -0.2
v -1 0 0.1
v -1 0 0
v -1 0.2 0.1
v -1 0.2 0
v -1 0.4 0.1
v -1 0.4 0
v -0.9 0.9 0.1
v -0.9 0.9 0
v -0.9 1 0.1
v -0.9 1 0
v -0.8 0 0.1
v -0.8 0 0
v -0.8 0.2 0.1
v -0.8 0.2 0
v -0.8 0.3 0.1
v -0.8 0.3 0
v -0.7 0.3 0.2
v -0.7 0.3 -0.1
v -0.7 0.6 0.2
v -0.7 0.6 -0.1
v -0.7 0.7 0.2
v -0.7 0.7 0.1
v -0.7 0.8 0.1
v -0.7 0.8 0
v -0.7 0.8 -0.1
v -0.7 0.9 0.2
v -0.7 0.9 0.1
v -0.7 0.9 0
v -0.7 0.9 -0.1
v -0.7 1.3 -0.2
v -0.7 1.3 -0.3
v -0.7 1.5 -0.1
v -0.7 1.5 -0.2
v -0.7 1.5 -0.3
v -0.7 1.6 0.4
v -0.7 1.6 0.3
v -0.7 1.6 0.2
v -0.7 1.6 -0.1
v -0.7 1.6 -0.2
v -0.7 1.7 0.4
v -0.7 1.7 0.3
v -0.7 1.7 0.2
v -0.7 1.7 -0.1
v -0.6 0.9 -0.2
v -0.6 0.9 -0.3
v -0.6 1.3 -0.1
v -0.6 1.3 -0.2
v -0.6 1.3 -0.3
v -0.6 1.5 0.4
v -0.6 1.5 0.3
v -0.6 1.5 0.2
v -0.6 1.5 -0.1
v -0.6 1.5 -0.2
v -0.6 1.6 0.4
v -0.6 1.6 0.3
v -0.6 1.6 0.2
v -0.6 1.6 -0.1
v -0.6 1.7 0.3
v -0.6 1.7 0.2
v -0.5 0.8 -0.1
v -0.5 0.8 -0.3
v -0.5 0.9 -0.2
v -0.5 0.9 -0.3
v -0.5 1 0.4
v -0.5 1 -0.1
v -0.5 1.3 -0.1
v -0.5 1.3 -0.2
v -0.5 1.5 0.4
v -0.5 1.5 0.3
v -0.5 1.5 0.2
v -0.5 1.5 -0.1
v -0.5 1.6 0.3
v -0.5 1.6 0.2
v -0.4 0.8 0.1
v -0.4 0.8 0
v -0.4 0.9 0.1
v -0.4 0.9 0
v -1.4 1 0.4
v -1.4 1.5 0.4
v -1.3 1 0.4
v -1.3 1.3 0.4
v -1.3 1.5 0.4
v -1.3 1.6 0.4
v -1.2 1.6 0.4
v -1.2 1.7 0.4
v -0.7 1.6 0.4
v -0.7 1.7 0.4
v -0.6 1 0.4
v -0.6 1.3 0.4
v -0.6 1.5 0.4
v -0.6 1.6 0.4
v -0.5 1 0.4
v -0.5 1.5 0.4
v -1.4 1.5 0.3
v -1.4 1.6 0.3
v -1.3 1 0.3
v -1.3 1.3 0.3
v -1.3 1.5 0.3
v -1.3 1.6 0.3
v -1.3 1.7 0.3
v -1.2 1.1 0.3
v -1.2 1.2 0.3
v -1.2 1.3 0.3
v -1.2 1.6 0.3
v -1.2 1.7 0.3
v -1.1 1.1 0.3
v -1.1 1.2 0.3
v -1.1 1.3 0.3
v -0.8 1.1 0.3
v -0.8 1.2 0.3
v -0.8 1.3 0.3
v -0.7 1.1 0.3
v -0.7 1.2 0.3
v -0.7 1.3 0.3
v -0.7 1.6 0.3
v -0.7 1.7 0.3
v -0.6 1 0.3
v -0.6 1.3 0.3
v -0.6 1.5 0.3
v -0.6 1.6 0.3
v -0.6 1.7 0.3
v -0.5 1.5 0.3
v -0.5 1.6 0.3
v -1.2 0.4 0.2
v -1.2 0.8 0.2
v -1.2 0.9 0.2
v -1.1 0.7 0.2
v -1.1 0.8 0.2
v -1 0.4 0.2
v -1 0.5 0.2
v -1 0.6 0.2
v -1 0.7 0.2
v -1 0.8 0.2
v -1 0.9 0.2
v -0.9 0.4 0.2
v -0.9 0.5 0.2
v -0.9 0.6 0.2
v -0.9 0.7 0.2
v -0.9 0.8 0.2
v -0.9 0.9 0.2
v -0.8 0.3 0.2
v -0.8 0.4 0.2
v -0.8 0.5 0.2
v -0.8 0.6 0.2
v -0.8 0.7 0.2
v -0.8 0.9 0.2
v -0.7 0.3 0.2
v -0.7 0.6 0.2
v -0.7 0.7 0.2
v -0.7 0.9 0.2
v -1.5 0.8 0.1
v -1.5 0.9 0.1
v -1.4 0.8 0.1
v -1.4 0.9 0.1
v -1.2 0.8 0.1
v -1.2 0.9 0.1
v -1.1 0 0.1
v -1.1 0.2 0.1
v -1.1 0.4 0.1
v -1 0 0.1
v -1 0.2 0.1
v -1 0.4 0.1
v -1 0.9 0.1
v -1 1 0.1
v -0.9 0 0.1
v -0.9 0.2 0.1
v -0.9 0.4 0.1
v -0.9 0.9 0.1
v -0.9 1 0.1
v -0.8 0 0.1
v -0.8 0.2 0.1
v -0.8 0.3 0.1
v -0.8 0.4 0.1
v -0.7 0.8 0.1
v -0.7 0.9 0.1
v -0.5 0.8 0.1
v -0.5 0.9 0.1
v -0.4 0.8 0.1
v -0.4 0.9 0.1
v -1.4 0.8 -0.1
v -1.4 1 -0.1
v -1.2 0.8 -0.1
v -1.2 0.9 -0.1
v -1 0.9 -0.1
v -0.8 0.9 -0.1
v -0.7 0.9 -0.1
v -0.6 0.8 -0.1
v -0.6 0.9 -0.1
v -0.5 0.8 -0.1
v -0.5 1 -0.1
v -1.2 0.8 -0.2
v -1.2 0.9 -0.2
v -0.6 0.8 -0.2
v -0.6 0.9 -0.2
v -1.4 1.5 0.2
v -1.4 1.6 0.2
v -1.3 1.5 0.2
v -1.3 1.6 0.2
v -1.3 1.7 0.2
v -1.2 1.6 0.2
v -1.2 1.7 0.2
v -0.7 1.6 0.2
v -0.7 1.7 0.2
v -0.6 1.5 0.2
v -0.6 1.6 0.2
v -0.6 1.7 0.2
v -0.5 1.5 0.2
v -0.5 1.6 0.2
v -1.5 0.8 0
v -1.5 0.9 0
v -1.4 0.8 0
v -1.4 0.9 0
v -1.2 0.8 0
v -1.2 0.9 0
v -1.1 0 0
v -1.1 0.2 0
v -1.1 0.4 0
v -1 0 0
v -1 0.2 0
v -1 0.4 0
v -1 0.9 0
v -1 1 0
v -0.9 0 0
v -0.9 0.2 0
v -0.9 0.4 0
v -0.9 0.9 0
v -0.9 1 0
v -0.8 0 0
v -0.8 0.2 0
v -0.8 0.3 0
v -0.8 0.4 0
v -0.7 0.8 0
v -0.7 0.9 0
v -0.5 0.8 0
v -0.5 0.9 0
v -0.4 0.8 0
v -0.4 0.9 0
v -1.4 1.3 -0.1
v -1.4 1.5 -0.1
v -1.3 1.3 -0.1
v -1.3 1.5 -0.1
v -1.3 1.6 -0.1
v -1.2 0.4 -0.1
v -1.2 0.8 -0.1
v -1.2 0.9 -0.1
v -1.2 1.5 -0.1
v -1.2 1.6 -0.1
v -1.2 1.7 -0.1
v -1.1 0.7 -0.1
v -1.1 0.8 -0.1
v -1 0.6 -0.1
v -1 0.7 -0.1
v -1 0.8 -0.1
v -1 0.9 -0.1
v -0.9 0.5 -0.1
v -0.9 0.6 -0.1
v -0.9 0.7 -0.1
v -0.9 0.8 -0.1
v -0.8 0.3 -0.1
v -0.8 0.4 -0.1
v -0.8 0.5 -0.1
v -0.8 0.6 -0.1
v -0.8 0.7 -0.1
v -0.8 0.8 -0.1
v -0.8 0.9 -0.1
v -0.7 0.3 -0.1
v -0.7 0.6 -0.1
v -0.7 0.8 -0.1
v -0.7 0.9 -0.1
v -0.7 1.5 -0.1
v -0.7 1.6 -0.1
v -0.7 1.7 -0.1
v -0.6 1.3 -0.1
v -0.6 1.5 -0.1
v -0.6 1.6 -0.1
v -0.5 1.3 -0.1
v -0.5 1.5 -0.1
v -1.4 0.9 -0.2
v -1.4 1.3 -0.2
v -1.3 0.9 -0.2
v -1.3 1.3 -0.2
v -1.3 1.5 -0.2
v -1.2 1.3 -0.2
v -1.2 1.5 -0.2
v -1.2 1.6 -0.2
v -0.7 1.3 -0.2
v -0.7 1.5 -0.2
v -0.7 1.6 -0.2
v -0.6 0.9 -0.2
v -0.6 1.3 -0.2
v -0.6 1.5 -0.2
v -0.5 0.9 -0.2
v -0.5 1.3 -0.2
v -1.4 0.8 -0.3
v -1.4 0.9 -0.3
v -1.3 0.9 -0.3
v -1.3 1.3 -0.3
v -1.2 1.3 -0.3
v -1.2 1.5 -0.3
v -0.7 1.3 -0.3
v -0.7 1.5 -0.3
v -0.6 0.9 -0.3
v -0.6 1.3 -0.3
v -0.5 0.8 -0.3
v -0.5 0.9 -0.3
v -1.1 0 0.1
v -1 0 0.1
v -0.9 0 0.1
v -0.8 0 0.1
v -1.1 0 0
v -1 0 0
v -0.9 0 0
v -0.8 0 0
v -0.8 0.3 0.2
v -0.7 0.3 0.2
v -0.8 0.3 0.1
v -0.8 0.3 0
v -0.8 0.3 -0.1
v -0.7 0.3 -0.1
v -1.2 0.4 0.2
v -1 0.4 0.2
v -0.9 0.4 0.2
v -0.8 0.4 0.2
v -1.2 0.4 0.1
v -1.1 0.4 0.1
v -1 0.4 0.1
v -0.9 0.4 0.1
v -0.8 0.4 0.1
v -1.2 0.4 0
v -1.1 0.4 0
v -1 0.4 0
v -0.9 0.4 0
v -0.8 0.4 0
v -1.2 0.4 -0.1
v -0.8 0.4 -0.1
v -1.5 0.8 0.1
v -1.4 0.8 0.1
v -1.2 0.8 0.1
v -0.7 0.8 0.1
v -0.5 0.8 0.1
v -0.4 0.8 0.1
v -1.5 0.8 0
v -1.4 0.8 0
v -1.2 0.8 0
v -0.7 0.8 0
v -0.5 0.8 0
v -0.4 0.8 0
v -1.4 0.8 -0.1
v -1.2 0.8 -0.1
v -0.6 0.8 -0.1
v -0.5 0.8 -0.1
v -1.2 0.8 -0.2
v -0.6 0.8 -0.2
v -1.4 0.8 -0.3
v -0.5 0.8 -0.3
v -1.2 0.9 -0.1
v -1 0.9 -0.1
v -0.8 0.9 -0.1
v -0.7 0.9 -0.1
v -0.6 0.9 -0.1
v -1.2 0.9 -0.2
v -0.6 0.9 -0.2
v -1.4 1 0.4
v -1.3 1 0.4
v -0.6 1 0.4
v -0.5 1 0.4
v -1.3 1 0.3
v -0.6 1 0.3
v -1 1 0.1
v -0.9 1 0.1
v -1.3 1 0
v -1 1 0
v -0.9 1 0
v -0.6 1 0
v -1.4 1 -0.1
v -0.5 1 -0.1
v -1.3 1.3 0.4
v -0.6 1.3 0.4
v -1.3 1.3 0.3
v -1.2 1.3 0.3
v -1.1 1.3 0.3
v -0.8 1.3 0.3
v -0.7 1.3 0.3
v -0.6 1.3 0.3
v -1.2 0.9 0.2
v -1 0.9 0.2
v -0.9 0.9 0.2
v -0.8 0.9 0.2
v -0.7 0.9 0.2
v -1.5 0.9 0.1
v -1.4 0.9 0.1
v -1.2 0.9 0.1
v -1.1 0.9 0.1
v -1 0.9 0.1
v -0.9 0.9 0.1
v -0.8 0.9 0.1
v -0.7 0.9 0.1
v -0.5 0.9 0.1
v -0.4 0.9 0.1
v -1.5 0.9 0
v -1.4 0.9 0
v -1.2 0.9 0
v -1.1 0.9 0
v -1 0.9 0
v -0.9 0.9 0
v -0.8 0.9 0
v -0.7 0.9 0
v -0.5 0.9 0
v -0.4 0.9 0
v -1.2 0.9 -0.1
v -1 0.9 -0.1
v -0.8 0.9 -0.1
v -0.7 0.9 -0.1
v -1.4 0.9 -0.2
v -1.3 0.9 -0.2
v -0.6 0.9 -0.2
v -0.5 0.9 -0.2
v -1.4 0.9 -0.3
v -1.3 0.9 -0.3
v -0.6 0.9 -0.3
v -0.5 0.9 -0.3
v -1.4 1.3 -0.1
v -1.3 1.3 -0.1
v -0.6 1.3 -0.1
v -0.5 1.3 -0.1
v -1.4 1.3 -0.2
v -1.3 1.3 -0.2
v -1.2 1.3 -0.2
v -0.7 1.3 -0.2
v -0.6 1.3 -0.2
v -0.5 1.3 -0.2
v -1.3 1.3 -0.3
v -1.2 1.3 -0.3
v -0.7 1.3 -0.3
v -0.6 1.3 -0.3
v -1.4 1.5 0.4
v -1.3 1.5 0.4
v -0.6 1.5 0.4
v -0.5 1.5 0.4
v -1.4 1.5 0.3
v -1.3 1.5 0.3
v -0.6 1.5 0.3
v -0.5 1.5 0.3
v -1.4 1.5 0.2
v -1.3 1.5 0.2
v -0.6 1.5 0.2
v -0.5 1.5 0.2
v -1.4 1.5 -0.1
v -1.3 1.5 -0.1
v -1.2 1.5 -0.1
v -0.7 1.5 -0.1
v -0.6 1.5 -0.1
v -0.5 1.5 -0.1
v -1.3 1.5 -0.2
v -1.2 1.5 -0.2
v -0.7 1.5 -0.2
v -0.6 1.5 -0.2
v -1.2 1.5 -0.3
v -0.7 1.5 -0.3
v -1.3 1.6 0.4
v -1.2 1.6 0.4
v -0.7 1.6 0.4
v -0.6 1.6 0.4
v -1.4 1.6 0.3
v -1.3 1.6 0.3
v -1.2 1.6 0.3
v -0.7 1.6 0.3
v -0.6 1.6 0.3
v -0.5 1.6 0.3
v -1.4 1.6 0.2
v -1.3 1.6 0.2
v -1.2 1.6 0.2
v -0.7 1.6 0.2
v -0.6 1.6 0.2
v -0.5 1.6 0.2
v -1.3 1.6 -0.1
v -1.2 1.6 -0.1
v -0.7 1.6 -0.1
v -0.6 1.6 -0.1
v -1.2 1.6 -0.2
v -0.7 1.6 -0.2
v -1.2 1.7 0.4
v -0.7 1.7 0.4
v -1.3 1.7 0.3
v -1.2 1.7 0.3
v -0.7 1.7 0.3
v -0.6 1.7 0.3
v -1.3 1.7 0.2
v -1.2 1.7 0.2
v -0.7 1.7 0.2
v -0.6 1.7 0.2
v -1.2 1.7 -0.1
v -0.7 1.7 -0.1

# faces
f 3/1/1 2/1/1 1/1/1
f 4/1/1 2/1/1 3/1/1
f 7/8/1 6/8/1 5/8/1
f 8/8/1 6/8/1 7/8/1
f 10/8/1 7/8/1 5/8/1
f 11/8/1 7/8/1 10/8/1
f 11/8/1 10/8/1 9/8/1
f 12/8/1 7/8/1 11/8/1
f 13/8/1 11/8/1 9/8/1
f 14/8/1 11/8/1 13/8/1
f 15/8/1 11/8/1 14/8/1
f 16/8/1 11/8/1 15/8/1
f 17/8/1 15/8/1 14/8/1
f 18/8/1 15/8/1 17/8/1
f 22/8/1 20/8/1 19/8/1
f 23/8/1 20/8/1 22/8/1
f 27/8/1 22/8/1 21/8/1
f 28/8/1 22/8/1 27/8/1
f 29/8/1 25/8/1 24/8/1
f 30/8/1 25/8/1 29/8/1
f 31/8/1 27/8/1 26/8/1
f 32/8/1 27/8/1 31/8/1
f 33/8/1 31/8/1 30/8/1
f 34/8/1 31/8/1 33/8/1
f 39/5/1 36/5/1 35/5/1
f 39/2/1 37/2/1 36/2/1
f 40/5/1 38/5/1 37/5/1
f 40/2/1 37/2/1 39/2/1
f 41/5/1 39/5/1 35/5/1
f 41/5/1 40/5/1 39/5/1
f 42/5/1 40/5/1 41/5/1
f 43/5/1 38/5/1 40/5/1
f 43/5/1 40/5/1 42/5/1
f 44/5/1 38/5/1 43/5/1
f 45/10/1 42/10/1 41/10/1
f 46/10/1 42/10/1 45/10/1
f 47/10/1 44/10/1 43/10/1
f 48/10/1 44/10/1 47/10/1
f 52/8/1 50/8/1 49/8/1
f 53/8/1 50/8/1 52/8/1
f 57/8/1 52/8/1 51/8/1
f 58/8/1 52/8/1 57/8/1
f 59/8/1 55/8/1 54/8/1
f 60/8/1 55/8/1 59/8/1
f 61/8/1 57/8/1 56/8/1
f 62/8/1 57/8/1 61/8/1
f 65/12/1 64/12/1 63/12/1
f 66/12/1 64/12/1 65/12/1
f 67/5/1 66/5/1 65/5/1
f 68/5/1 66/5/1 67/5/1
f 71/1/1 70/1/1 69/1/1
f 72/1/1 70/1/1 71/1/1
f 75/12/1 74/12/1 73/12/1
f 76/12/1 74/12/1 75/12/1
f 77/5/1 76/5/1 75/5/1
f 78/5/1 76/5/1 77/5/1
f 83/10/1 80/10/1 79/10/1
f 84/10/1 80/10/1 83/10/1
f 85/10/1 82/10/1 81/10/1
f 86/10/1 82/10/1 85/10/1
f 89/8/1 88/8/1 87/8/1
f 90/8/1 88/8/1 89/8/1
f 93/8/1 92/8/1 91/8/1
f 94/8/1 92/8/1 93/8/1
f 95/8/2 96/8/2 97/8/2
f 97/8/2 96/8/2 98/8/2
f 99/8/2 100/8/2 101/8/2
f 101/8/2 100/8/2 102/8/2
f 103/12/2 104/12/2 105/12/2
f 105/12/2 104/12/2 106/12/2
f 105/5/2 106/5/2 107/5/2
f 107/5/2 106/5/2 108/5/2
f 109/1/2 110/1/2 111/1/2
f 111/1/2 110/1/2 112/1/2
f 113/12/2 114/12/2 115/12/2
f 115/12/2 114/12/2 116/12/2
f 115/5/2 116/5/2 117/5/2
f 117/5/2 116/5/2 118/5/2
f 119/10/2 120/10/2 121/10/2
f 121/10/2 120/10/2 122/10/2
f 121/5/2 122/5/2 123/5/2
f 123/5/2 122/5/2 124/5/2
f 123/6/2 124/6/2 125/6/2
f 124/5/2 122/5/2 125/5/2
f 125/5/2 122/5/2 126/5/2
f 126/5/2 122/5/2 127/5/2
f 123/6/2 125/6/2 128/6/2
f 128/6/2 125/6/2 129/6/2
f 126/6/2 127/6/2 130/6/2
f 130/6/2 127/6/2 131/6/2
f 132/8/2 133/8/2 135/8/2
f 135/8/2 133/8/2 136/8/2
f 134/8/2 135/8/2 140/8/2
f 140/8/2 135/8/2 141/8/2
f 137/8/2 138/8/2 142/8/2
f 142/8/2 138/8/2 143/8/2
f 139/8/2 140/8/2 144/8/2
f 144/8/2 140/8/2 145/8/2
f 146/8/2 147/8/2 149/8/2
f 149/8/2 147/8/2 150/8/2
f 148/8/2 149/8/2 154/8/2
f 154/8/2 149/8/2 155/8/2
f 151/8/2 152/8/2 156/8/2
f 156/8/2 152/8/2 157/8/2
f 153/8/2 154/8/2 158/8/2
f 158/8/2 154/8/2 159/8/2
f 157/8/2 158/8/2 160/8/2
f 160/8/2 158/8/2 161/8/2
f 162/8/2 163/8/2 164/8/2
f 164/8/2 163/8/2 165/8/2
f 162/8/2 164/8/2 167/8/2
f 167/8/2 164/8/2 168/8/2
f 166/8/2 167/8/2 168/8/2
f 168/8/2 164/8/2 169/8/2
f 166/8/2 168/8/2 170/8/2
f 170/8/2 168/8/2 171/8/2
f 171/8/2 168/8/2 172/8/2
f 172/8/2 168/8/2 173/8/2
f 171/8/2 172/8/2 174/8/2
f 174/8/2 172/8/2 175/8/2
f 176/1/2 177/1/2 178/1/2
f 178/1/2 177/1/2 179/1/2
f 182/8/3 181/8/3 180/8/3
f 183/8/3 181/8/3 182/8/3
f 184/8/3 181/8/3 183/8/3
f 186/8/3 185/8/3 184/8/3
f 186/8/3 184/8/3 183/8/3
f 188/8/3 186/8/3 183/8/3
f 188/8/3 187/8/3 186/8/3
f 189/8/3 187/8/3 188/8/3
f 191/8/3 188/8/3 183/8/3
f 192/8/3 188/8/3 191/8/3
f 193/8/3 188/8/3 192/8/3
f 194/8/3 191/8/3 190/8/3
f 194/8/3 192/8/3 191/8/3
f 195/8/3 192/8/3 194/8/3
f 200/8/3 197/8/3 196/8/3
f 201/8/3 197/8/3 200/8/3
f 203/1/3 199/1/3 198/1/3
f 204/1/3 199/1/3 203/1/3
f 205/1/3 199/1/3 204/1/3
f 206/8/3 202/8/3 201/8/3
f 207/8/3 202/8/3 206/8/3
f 208/1/3 203/1/3 198/1/3
f 208/7/3 204/7/3 203/7/3
f 209/12/3 205/12/3 204/12/3
f 209/7/3 204/7/3 208/7/3
f 210/12/3 205/12/3 209/12/3
f 211/1/3 208/1/3 198/1/3
f 211/1/3 209/1/3 208/1/3
f 211/1/3 210/1/3 209/1/3
f 212/1/3 210/1/3 211/1/3
f 213/1/3 210/1/3 212/1/3
f 214/1/3 211/1/3 198/1/3
f 214/7/3 212/7/3 211/7/3
f 215/12/3 213/12/3 212/12/3
f 215/7/3 212/7/3 214/7/3
f 216/12/3 213/12/3 215/12/3
f 219/1/3 216/1/3 215/1/3
f 219/1/3 215/1/3 214/1/3
f 219/1/3 214/1/3 198/1/3
f 220/1/3 216/1/3 219/1/3
f 222/8/3 218/8/3 217/8/3
f 223/8/3 218/8/3 222/8/3
f 224/8/3 222/8/3 221/8/3
f 225/8/3 222/8/3 224/8/3
f 229/5/3 227/5/3 226/5/3
f 230/10/3 228/10/3 227/10/3
f 230/5/3 227/5/3 229/5/3
f 231/5/3 229/5/3 226/5/3
f 232/5/3 229/5/3 231/5/3
f 233/5/3 229/5/3 232/5/3
f 234/10/3 230/10/3 229/10/3
f 234/5/3 229/5/3 233/5/3
f 235/10/3 228/10/3 230/10/3
f 235/10/3 230/10/3 234/10/3
f 236/10/3 228/10/3 235/10/3
f 237/2/3 232/2/3 231/2/3
f 238/5/3 233/5/3 232/5/3
f 238/2/3 232/2/3 237/2/3
f 239/2/3 234/2/3 233/2/3
f 239/5/3 233/5/3 238/5/3
f 240/10/3 235/10/3 234/10/3
f 240/2/3 234/2/3 239/2/3
f 241/2/3 236/2/3 235/2/3
f 241/10/3 235/10/3 240/10/3
f 242/2/3 236/2/3 241/2/3
f 244/5/3 238/5/3 237/5/3
f 245/10/3 239/10/3 238/10/3
f 245/10/3 240/10/3 239/10/3
f 245/5/3 238/5/3 244/5/3
f 246/10/3 240/10/3 245/10/3
f 247/5/3 241/5/3 240/5/3
f 247/10/3 240/10/3 246/10/3
f 247/5/3 242/5/3 241/5/3
f 248/5/3 242/5/3 247/5/3
f 249/10/3 244/10/3 243/10/3
f 249/10/3 246/10/3 245/10/3
f 249/10/3 245/10/3 244/10/3
f 250/5/3 247/5/3 246/5/3
f 250/10/3 246/10/3 249/10/3
f 251/6/3 248/6/3 247/6/3
f 251/5/3 247/5/3 250/5/3
f 252/6/3 248/6/3 251/6/3
f 255/1/3 254/1/3 253/1/3
f 256/1/3 254/1/3 255/1/3
f 257/5/3 256/5/3 255/5/3
f 258/5/3 256/5/3 257/5/3
f 262/12/3 260/12/3 259/12/3
f 263/5/3 261/5/3 260/5/3
f 263/12/3 260/12/3 262/12/3
f 264/5/3 261/5/3 263/5/3
f 270/1/3 266/1/3 265/1/3
f 271/1/3 266/1/3 270/1/3
f 272/12/3 268/12/3 267/12/3
f 273/5/3 269/5/3 268/5/3
f 273/12/3 268/12/3 272/12/3
f 274/5/3 269/5/3 273/5/3
f 275/5/3 269/5/3 274/5/3
f 278/5/3 277/5/3 276/5/3
f 279/5/3 277/5/3 278/5/3
f 280/1/3 279/1/3 278/1/3
f 281/1/3 279/1/3 280/1/3
f 284/8/3 283/8/3 282/8/3
f 285/8/3 283/8/3 284/8/3
f 286/8/3 283/8/3 285/8/3
f 287/8/3 283/8/3 286/8/3
f 288/8/3 283/8/3 287/8/3
f 290/8/3 283/8/3 288/8/3
f 291/8/3 290/8/3 289/8/3
f 292/8/3 283/8/3 290/8/3
f 292/8/3 290/8/3 291/8/3
f 295/8/3 294/8/3 293/8/3
f 296/8/3 294/8/3 295/8/3
f 297/8/4 298/8/4 299/8/4
f 299/8/4 298/8/4 300/8/4
f 300/8/4 301/8/4 302/8/4
f 302/8/4 301/8/4 303/8/4
f 304/8/4 305/8/4 307/8/4
f 307/8/4 305/8/4 308/8/4
f 306/8/4 307/8/4 309/8/4
f 309/8/4 307/8/4 310/8/4
f 311/1/4 312/1/4 313/1/4
f 313/1/4 312/1/4 314/1/4
f 313/5/4 314/5/4 315/5/4
f 315/5/4 314/5/4 316/5/4
f 317/12/4 318/12/4 320/12/4
f 318/5/4 319/5/4 321/5/4
f 320/12/4 318/12/4 321/12/4
f 321/5/4 319/5/4 322/5/4
f 323/1/4 324/1/4 328/1/4
f 328/1/4 324/1/4 329/1/4
f 325/12/4 326/12/4 330/12/4
f 326/5/4 327/5/4 331/5/4
f 330/12/4 326/12/4 331/12/4
f 331/5/4 327/5/4 332/5/4
f 332/5/4 327/5/4 333/5/4
f 334/5/4 335/5/4 336/5/4
f 336/5/4 335/5/4 337/5/4
f 336/1/4 337/1/4 338/1/4
f 338/1/4 337/1/4 339/1/4
f 340/8/4 341/8/4 342/8/4
f 342/8/4 341/8/4 343/8/4
f 343/8/4 344/8/4 348/8/4
f 348/8/4 344/8/4 349/8/4
f 345/5/4 346/5/4 351/5/4
f 346/10/4 347/10/4 352/10/4
f 351/5/4 346/5/4 352/5/4
f 345/5/4 351/5/4 353/5/4
f 351/10/4 352/10/4 354/10/4
f 353/5/4 351/5/4 354/5/4
f 352/10/4 347/10/4 355/10/4
f 354/10/4 352/10/4 355/10/4
f 355/10/4 347/10/4 356/10/4
f 345/5/4 353/5/4 357/5/4
f 353/10/4 354/10/4 358/10/4
f 357/5/4 353/5/4 358/5/4
f 354/10/4 355/10/4 358/10/4
f 358/10/4 355/10/4 359/10/4
f 355/5/4 356/5/4 360/5/4
f 359/10/4 355/10/4 360/10/4
f 345/5/4 357/5/4 362/5/4
f 358/10/4 359/10/4 363/10/4
f 357/10/4 358/10/4 363/10/4
f 362/5/4 357/5/4 363/5/4
f 363/10/4 359/10/4 364/10/4
f 359/5/4 360/5/4 365/5/4
f 364/10/4 359/10/4 365/10/4
f 360/5/4 356/5/4 366/5/4
f 365/5/4 360/5/4 366/5/4
f 366/5/4 356/5/4 367/5/4
f 361/10/4 362/10/4 368/10/4
f 363/10/4 364/10/4 368/10/4
f 362/10/4 363/10/4 368/10/4
f 364/5/4 365/5/4 369/5/4
f 368/10/4 364/10/4 369/10/4
f 365/5/4 366/5/4 369/5/4
f 366/6/4 367/6/4 370/6/4
f 369/5/4 366/5/4 370/5/4
f 370/6/4 367/6/4 371/6/4
f 349/8/4 350/8/4 373/8/4
f 373/8/4 350/8/4 374/8/4
f 372/8/4 373/8/4 376/8/4
f 376/8/4 373/8/4 377/8/4
f 375/8/4 376/8/4 378/8/4
f 378/8/4 376/8/4 379/8/4
f 380/8/4 381/8/4 382/8/4
f 382/8/4 381/8/4 383/8/4
f 383/8/4 384/8/4 385/8/4
f 385/8/4 384/8/4 386/8/4
f 386/8/4 387/8/4 389/8/4
f 389/8/4 387/8/4 390/8/4
f 388/8/4 389/8/4 392/8/4
f 392/8/4 389/8/4 393/8/4
f 391/8/4 392/8/4 394/8/4
f 394/8/4 392/8/4 395/8/4
f 396/8/4 397/8/4 398/8/4
f 398/8/4 399/8/4 400/8/4
f 398/8/4 400/8/4 402/8/4
f 400/8/4 401/8/4 402/8/4
f 402/8/4 401/8/4 403/8/4
f 396/8/4 398/8/4 404/8/4
f 398/8/4 402/8/4 404/8/4
f 404/8/4 402/8/4 405/8/4
f 396/8/4 404/8/4 406/8/4
f 406/8/4 404/8/4 407/8/4
f 412/12/5 409/12/5 408/12/5
f 413/12/5 409/12/5 412/12/5
f 414/12/5 411/12/5 410/12/5
f 415/12/5 411/12/5 414/12/5
f 418/10/5 417/10/5 416/10/5
f 419/10/5 417/10/5 418/10/5
f 420/10/5 417/10/5 419/10/5
f 421/10/5 417/10/5 420/10/5
f 426/5/5 423/5/5 422/5/5
f 427/5/5 423/5/5 426/5/5
f 428/2/5 424/2/5 423/2/5
f 428/5/5 423/5/5 427/5/5
f 429/5/5 425/5/5 424/5/5
f 429/2/5 424/2/5 428/2/5
f 430/5/5 425/5/5 429/5/5
f 431/2/5 427/2/5 426/2/5
f 432/2/5 427/2/5 431/2/5
f 433/5/5 429/5/5 428/5/5
f 434/5/5 429/5/5 433/5/5
f 436/5/5 432/5/5 431/5/5
f 436/5/5 435/5/5 434/5/5
f 436/5/5 434/5/5 433/5/5
f 436/5/5 433/5/5 432/5/5
f 437/5/5 435/5/5 436/5/5
f 444/1/5 439/1/5 438/1/5
f 445/5/5 440/5/5 439/5/5
f 445/1/5 439/1/5 444/1/5
f 446/5/5 440/5/5 445/5/5
f 447/5/5 442/5/5 441/5/5
f 448/1/5 443/1/5 442/1/5
f 448/5/5 442/5/5 447/5/5
f 449/1/5 443/1/5 448/1/5
f 454/8/5 451/8/5 450/8/5
f 455/8/5 453/8/5 452/8/5
f 456/8/5 454/8/5 450/8/5
f 456/8/5 455/8/5 454/8/5
f 457/8/5 453/8/5 455/8/5
f 457/8/5 455/8/5 456/8/5
f 463/8/5 459/8/5 458/8/5
f 463/8/5 462/8/5 461/8/5
f 463/8/5 461/8/5 460/8/5
f 463/8/5 460/8/5 459/8/5
f 464/8/5 462/8/5 463/8/5
f 469/8/5 466/8/5 465/8/5
f 470/8/5 468/8/5 467/8/5
f 471/1/5 470/1/5 469/1/5
f 472/1/5 470/1/5 471/1/5
f 473/8/5 469/8/5 465/8/5
f 473/1/5 471/1/5 469/1/5
f 474/1/5 471/1/5 473/1/5
f 475/1/5 470/1/5 472/1/5
f 476/8/5 468/8/5 470/8/5
f 476/1/5 470/1/5 475/1/5
f 477/8/5 474/8/5 473/8/5
f 477/8/5 475/8/5 474/8/5
f 477/8/5 476/8/5 475/8/5
f 477/8/5 473/8/5 465/8/5
f 478/8/5 468/8/5 476/8/5
f 478/8/5 476/8/5 477/8/5
f 481/8/5 480/8/5 479/8/5
f 482/8/5 480/8/5 481/8/5
f 483/8/5 480/8/5 482/8/5
f 484/8/5 480/8/5 483/8/5
f 485/8/5 480/8/5 484/8/5
f 486/8/5 480/8/5 485/8/5
f 487/10/6 488/10/6 494/10/6
f 494/10/6 488/10/6 495/10/6
f 488/2/6 489/2/6 496/2/6
f 495/10/6 488/10/6 496/10/6
f 489/5/6 490/5/6 497/5/6
f 496/2/6 489/2/6 497/2/6
f 490/6/6 491/6/6 498/6/6
f 497/5/6 490/5/6 498/5/6
f 498/6/6 491/6/6 499/6/6
f 492/1/6 493/1/6 502/1/6
f 493/5/6 494/5/6 503/5/6
f 502/1/6 493/1/6 503/1/6
f 494/10/6 495/10/6 504/10/6
f 503/5/6 494/5/6 504/5/6
f 495/4/6 496/4/6 505/4/6
f 504/10/6 495/10/6 505/10/6
f 505/4/6 496/4/6 506/4/6
f 497/4/6 498/4/6 507/4/6
f 498/6/6 499/6/6 508/6/6
f 507/4/6 498/4/6 508/4/6
f 499/5/6 500/5/6 509/5/6
f 508/6/6 499/6/6 509/6/6
f 500/1/6 501/1/6 510/1/6
f 509/5/6 500/5/6 510/5/6
f 510/1/6 501/1/6 511/1/6
f 505/10/6 506/10/6 512/10/6
f 504/10/6 505/10/6 512/10/6
f 507/5/6 508/5/6 513/5/6
f 512/10/6 506/10/6 513/10/6
f 506/5/6 507/5/6 513/5/6
f 508/6/6 509/6/6 514/6/6
f 513/5/6 508/5/6 514/5/6
f 514/6/6 509/6/6 515/6/6
f 516/8/6 517/8/6 520/8/6
f 520/8/6 517/8/6 521/8/6
f 518/8/6 519/8/6 522/8/6
f 522/8/6 519/8/6 523/8/6
f 524/8/6 525/8/6 528/8/6
f 528/8/6 525/8/6 529/8/6
f 526/8/6 527/8/6 532/8/6
f 532/8/6 527/8/6 533/8/6
f 529/8/6 530/8/6 534/8/6
f 534/8/6 530/8/6 535/8/6
f 531/8/6 532/8/6 536/8/6
f 536/8/6 532/8/6 537/8/6
f 538/8/6 539/8/6 542/8/6
f 542/8/6 539/8/6 543/8/6
f 540/8/6 541/8/6 544/8/6
f 544/8/6 541/8/6 545/8/6
f 546/8/6 547/8/6 550/8/6
f 550/8/6 547/8/6 551/8/6
f 548/8/6 549/8/6 554/8/6
f 554/8/6 549/8/6 555/8/6
f 551/8/6 552/8/6 556/8/6
f 556/8/6 552/8/6 557/8/6
f 553/8/6 554/8/6 558/8/6
f 558/8/6 554/8/6 559/8/6
f 557/8/6 558/8/6 560/8/6
f 560/8/6 558/8/6 561/8/6
f 562/8/6 563/8/6 567/8/6
f 567/8/6 563/8/6 568/8/6
f 564/8/6 565/8/6 569/8/6
f 569/8/6 565/8/6 570/8/6
f 566/8/6 567/8/6 572/8/6
f 572/8/6 567/8/6 573/8/6
f 570/8/6 571/8/6 576/8/6
f 576/8/6 571/8/6 577/8/6
f 573/8/6 574/8/6 578/8/6
f 578/8/6 574/8/6 579/8/6
f 575/8/6 576/8/6 580/8/6
f 580/8/6 576/8/6 581/8/6
f 579/8/6 580/8/6 582/8/6
f 582/8/6 580/8/6 583/8/6
f 584/8/6 585/8/6 587/8/6
f 587/8/6 585/8/6 588/8/6
f 586/8/6 587/8/6 590/8/6
f 588/8/6 589/8/6 590/8/6
f 587/8/6 588/8/6 590/8/6
f 590/8/6 589/8/6 591/8/6
f 591/8/6 589/8/6 592/8/6
f 592/8/6 589/8/6 593/8/6
f 591/8/6 592/8/6 594/8/6
f 594/8/6 592/8/6 595/8/6
