# MagicaVoxel @ Ephtracy

# group
o 

# material
mtllib maids.mtl
usemtl palette

# normals
vn -1 0 0
vn 1 0 0
vn 0 0 1
vn 0 0 -1
vn 0 -1 0
vn 0 1 0

# texcoords
vt 0.0253906 0.5
vt 0.0332031 0.5
vt 0.0371094 0.5
vt 0.701172 0.5
vt 0.826172 0.5
vt 0.833984 0.5
vt 0.841797 0.5
vt 0.876953 0.5
vt 0.919922 0.5
vt 0.955078 0.5
vt 0.958984 0.5
vt 0.994141 0.5

# verts
v -1.5 0.8 0.1
v -1.5 0.8 0
v -1.5 0.9 0.1
v -1.5 0.9 0
v -1.4 0.9 0.4
v -1.4 0.9 0.3
v -1.4 0.9 -0.1
v -1.4 0.9 -0.2
v -1.4 1 0.3
v -1.4 1 -0.1
v -1.4 1.3 -0.1
v -1.4 1.3 -0.2
v -1.4 1.5 0.4
v -1.4 1.5 0.3
v -1.4 1.5 0.2
v -1.4 1.5 -0.1
v -1.4 1.6 0.3
v -1.4 1.6 0.2
v -1.3 1 -0.2
v -1.3 1 -0.3
v -1.3 1.3 -0.1
v -1.3 1.3 -0.2
v -1.3 1.3 -0.3
v -1.3 1.5 0.4
v -1.3 1.5 0.3
v -1.3 1.5 0.2
v -1.3 1.5 -0.1
v -1.3 1.5 -0.2
v -1.3 1.6 0.4
v -1.3 1.6 0.3
v -1.3 1.6 0.2
v -1.3 1.6 -0.1
v -1.3 1.7 0.3
v -1.3 1.7 0.2
v -1.2 0.4 0.2
v -1.2 0.4 0.1
v -1.2 0.4 0
v -1.2 0.4 -0.1
v -1.2 0.6 0.1
v -1.2 0.6 0
v -1.2 0.8 0.2
v -1.2 0.8 0.1
v -1.2 0.8 0
v -1.2 0.8 -0.1
v -1.2 0.9 0.2
v -1.2 0.9 0.1
v -1.2 0.9 0
v -1.2 0.9 -0.1
v -1.2 1.3 -0.2
v -1.2 1.3 -0.3
v -1.2 1.5 -0.1
v -1.2 1.5 -0.2
v -1.2 1.5 -0.3
v -1.2 1.6 0.4
v -1.2 1.6 0.3
v -1.2 1.6 0.2
v -1.2 1.6 -0.1
v -1.2 1.6 -0.2
v -1.2 1.7 0.4
v -1.2 1.7 0.3
v -1.2 1.7 0.2
v -1.2 1.7 -0.1
v -1.1 0 0.1
v -1.1 0 0
v -1.1 0.2 0.1
v -1.1 0.2 0
v -1.1 0.4 0.1
v -1.1 0.4 0
v -1 0.9 0.1
v -1 0.9 0
v -1 1 0.1
v -1 1 0
v -0.9 0 0.1
v -0.9 0 0
v -0.9 0.2 0.1
v -0.9 0.2 0
v -0.9 0.4 0.1
v -0.9 0.4 0
v -0.8 0.3 0.2
v -0.8 0.3 0.1
v -0.8 0.3 0
v -0.8 0.3 -0.1
v -0.8 0.4 0.2
v -0.8 0.4 0.1
v -0.8 0.4 0
v -0.8 0.4 -0.1
v -0.8 1.4 0.4
v -0.8 1.4 0.3
v -0.8 1.5 0.4
v -0.8 1.5 0.3
v -0.7 1.3 0.4
v -0.7 1.3 0.3
v -0.7 1.4 0.4
v -0.7 1.4 0.3
v -0.6 0.9 0.4
v -0.6 0.9 0.3
v -0.6 1 0.3
v -0.6 1.3 0.4
v -0.6 1.3 0.3
v -1.3 0.9 0.4
v -1.3 0.9 0.3
v -1.3 1 0.3
v -1.3 1.3 0.4
v -1.3 1.3 0.3
v -1.2 1.3 0.4
v -1.2 1.3 0.3
v -1.2 1.4 0.4
v -1.2 1.4 0.3
v -1.1 1.4 0.4
v -1.1 1.4 0.3
v -1.1 1.5 0.4
v -1.1 1.5 0.3
v -1 0 0.1
v -1 0 0
v -1 0.2 0.1
v -1 0.2 0
v -1 0.4 0.1
v -1 0.4 0
v -0.9 0.9 0.1
v -0.9 0.9 0
v -0.9 1 0.1
v -0.9 1 0
v -0.8 0 0.1
v -0.8 0 0
v -0.8 0.2 0.1
v -0.8 0.2 0
v -0.8 0.3 0.1
v -0.8 0.3 0
v -0.7 0.3 0.2
v -0.7 0.3 -0.1
v -0.7 0.6 0.2
v -0.7 0.6 -0.1
v -0.7 0.7 0.2
v -0.7 0.7 0.1
v -0.7 0.8 0.1
v -0.7 0.8 0
v -0.7 0.8 -0.1
v -0.7 0.9 0.2
v -0.7 0.9 0.1
v -0.7 0.9 0
v -0.7 0.9 -0.1
v -0.7 1.3 -0.2
v -0.7 1.3 -0.3
v -0.7 1.5 -0.1
v -0.7 1.5 -0.2
v -0.7 1.5 -0.3
v -0.7 1.6 0.4
v -0.7 1.6 0.3
v -0.7 1.6 0.2
v -0.7 1.6 -0.1
v -0.7 1.6 -0.2
v -0.7 1.7 0.4
v -0.7 1.7 0.3
v -0.7 1.7 0.2
v -0.7 1.7 -0.1
v -0.6 1 -0.2
v -0.6 1 -0.3
v -0.6 1.3 -0.1
v -0.6 1.3 -0.2
v -0.6 1.3 -0.3
v -0.6 1.5 0.4
v -0.6 1.5 0.3
v -0.6 1.5 0.2
v -0.6 1.5 -0.1
v -0.6 1.5 -0.2
v -0.6 1.6 0.4
v -0.6 1.6 0.3
v -0.6 1.6 0.2
v -0.6 1.6 -0.1
v -0.6 1.7 0.3
v -0.6 1.7 0.2
v -0.5 0.9 0.4
v -0.5 0.9 0.3
v -0.5 0.9 -0.1
v -0.5 0.9 -0.2
v -0.5 1 0.3
v -0.5 1 -0.1
v -0.5 1.3 -0.1
v -0.5 1.3 -0.2
v -0.5 1.5 0.4
v -0.5 1.5 0.3
v -0.5 1.5 0.2
v -0.5 1.5 -0.1
v -0.5 1.6 0.3
v -0.5 1.6 0.2
v -0.4 0.8 0.1
v -0.4 0.8 0
v -0.4 0.9 0.1
v -0.4 0.9 0
v -1.4 0.9 0.4
v -1.4 1.5 0.4
v -1.3 0.9 0.4
v -1.3 1.3 0.4
v -1.3 1.5 0.4
v -1.3 1.6 0.4
v -1.2 1.3 0.4
v -1.2 1.4 0.4
v -1.2 1.6 0.4
v -1.2 1.7 0.4
v -1.1 1.4 0.4
v -1.1 1.5 0.4
v -0.8 1.4 0.4
v -0.8 1.5 0.4
v -0.7 1.3 0.4
v -0.7 1.4 0.4
v -0.7 1.6 0.4
v -0.7 1.7 0.4
v -0.6 0.9 0.4
v -0.6 1.3 0.4
v -0.6 1.5 0.4
v -0.6 1.6 0.4
v -0.5 0.9 0.4
v -0.5 1.5 0.4
v -1.4 1.5 0.3
v -1.4 1.6 0.3
v -1.3 1 0.3
v -1.3 1.3 0.3
v -1.3 1.5 0.3
v -1.3 1.6 0.3
v -1.3 1.7 0.3
v -1.2 1.1 0.3
v -1.2 1.2 0.3
v -1.2 1.3 0.3
v -1.2 1.4 0.3
v -1.2 1.6 0.3
v -1.2 1.7 0.3
v -1.1 1.1 0.3
v -1.1 1.2 0.3
v -1.1 1.3 0.3
v -1.1 1.4 0.3
v -1.1 1.5 0.3
v -0.8 1.1 0.3
v -0.8 1.2 0.3
v -0.8 1.3 0.3
v -0.8 1.4 0.3
v -0.8 1.5 0.3
v -0.7 1.1 0.3
v -0.7 1.2 0.3
v -0.7 1.3 0.3
v -0.7 1.4 0.3
v -0.7 1.6 0.3
v -0.7 1.7 0.3
v -0.6 1 0.3
v -0.6 1.3 0.3
v -0.6 1.5 0.3
v -0.6 1.6 0.3
v -0.6 1.7 0.3
v -0.5 1.5 0.3
v -0.5 1.6 0.3
v -1.2 0.4 0.2
v -1.2 0.8 0.2
v -1.2 0.9 0.2
v -1.1 0.7 0.2
v -1.1 0.8 0.2
v -1 0.4 0.2
v -1 0.5 0.2
v -1 0.6 0.2
v -1 0.7 0.2
v -1 0.8 0.2
v -1 0.9 0.2
v -0.9 0.4 0.2
v -0.9 0.5 0.2
v -0.9 0.6 0.2
v -0.9 0.7 0.2
v -0.9 0.8 0.2
v -0.9 0.9 0.2
v -0.8 0.3 0.2
v -0.8 0.4 0.2
v -0.8 0.5 0.2
v -0.8 0.6 0.2
v -0.8 0.7 0.2
v -0.8 0.8 0.2
v -0.8 0.9 0.2
v -0.7 0.3 0.2
v -0.7 0.6 0.2
v -0.7 0.7 0.2
v -0.7 0.9 0.2
v -1.5 0.8 0.1
v -1.5 0.9 0.1
v -1.4 0.8 0.1
v -1.4 0.9 0.1
v -1.2 0.8 0.1
v -1.2 0.9 0.1
v -1.1 0 0.1
v -1.1 0.2 0.1
v -1.1 0.4 0.1
v -1 0 0.1
v -1 0.2 0.1
v -1 0.4 0.1
v -1 0.9 0.1
v -1 1 0.1
v -0.9 0 0.1
v -0.9 0.2 0.1
v -0.9 0.4 0.1
v -0.9 0.9 0.1
v -0.9 1 0.1
v -0.8 0 0.1
v -0.8 0.2 0.1
v -0.8 0.3 0.1
v -0.8 0.4 0.1
v -0.7 0.8 0.1
v -0.7 0.9 0.1
v -0.5 0.8 0.1
v -0.5 0.9 0.1
v -0.4 0.8 0.1
v -0.4 0.9 0.1
v -1.4 0.9 -0.1
v -1.4 1 -0.1
v -1.3 1 -0.1
v -1.2 0.9 -0.1
v -1.2 1 -0.1
v -1 0.9 -0.1
v -0.8 0.9 -0.1
v -0.7 0.9 -0.1
v -0.7 1 -0.1
v -0.5 0.9 -0.1
v -0.5 1 -0.1
v -1.4 0.9 0.3
v -1.4 1 0.3
v -1.3 0.9 0.3
v -1.3 1 0.3
v -0.6 0.9 0.3
v -0.6 1 0.3
v -0.5 0.9 0.3
v -0.5 1 0.3
v -1.4 1.5 0.2
v -1.4 1.6 0.2
v -1.3 1.5 0.2
v -1.3 1.6 0.2
v -1.3 1.7 0.2
v -1.2 1.6 0.2
v -1.2 1.7 0.2
v -0.7 1.6 0.2
v -0.7 1.7 0.2
v -0.6 1.5 0.2
v -0.6 1.6 0.2
v -0.6 1.7 0.2
v -0.5 1.5 0.2
v -0.5 1.6 0.2
v -1.5 0.8 0
v -1.5 0.9 0
v -1.4 0.8 0
v -1.4 0.9 0
v -1.2 0.8 0
v -1.2 0.9 0
v -1.1 0 0
v -1.1 0.2 0
v -1.1 0.4 0
v -1 0 0
v -1 0.2 0
v -1 0.4 0
v -1 0.9 0
v -1 1 0
v -0.9 0 0
v -0.9 0.2 0
v -0.9 0.4 0
v -0.9 0.9 0
v -0.9 1 0
v -0.8 0 0
v -0.8 0.2 0
v -0.8 0.3 0
v -0.8 0.4 0
v -0.7 0.8 0
v -0.7 0.9 0
v -0.5 0.8 0
v -0.5 0.9 0
v -0.4 0.8 0
v -0.4 0.9 0
v -1.4 1.3 -0.1
v -1.4 1.5 -0.1
v -1.3 1.3 -0.1
v -1.3 1.5 -0.1
v -1.3 1.6 -0.1
v -1.2 0.4 -0.1
v -1.2 0.8 -0.1
v -1.2 0.9 -0.1
v -1.2 1.5 -0.1
v -1.2 1.6 -0.1
v -1.2 1.7 -0.1
v -1.1 0.7 -0.1
v -1.1 0.8 -0.1
v -1 0.6 -0.1
v -1 0.7 -0.1
v -1 0.8 -0.1
v -1 0.9 -0.1
v -0.9 0.5 -0.1
v -0.9 0.6 -0.1
v -0.9 0.7 -0.1
v -0.9 0.8 -0.1
v -0.8 0.3 -0.1
v -0.8 0.4 -0.1
v -0.8 0.5 -0.1
v -0.8 0.6 -0.1
v -0.8 0.7 -0.1
v -0.8 0.8 -0.1
v -0.8 0.9 -0.1
v -0.7 0.3 -0.1
v -0.7 0.6 -0.1
v -0.7 0.8 -0.1
v -0.7 0.9 -0.1
v -0.7 1.5 -0.1
v -0.7 1.6 -0.1
v -0.7 1.7 -0.1
v -0.6 1.3 -0.1
v -0.6 1.5 -0.1
v -0.6 1.6 -0.1
v -0.5 1.3 -0.1
v -0.5 1.5 -0.1
v -1.4 0.9 -0.2
v -1.4 1.3 -0.2
v -1.3 1 -0.2
v -1.3 1.3 -0.2
v -1.3 1.5 -0.2
v -1.2 1.3 -0.2
v -1.2 1.5 -0.2
v -1.2 1.6 -0.2
v -0.7 1.3 -0.2
v -0.7 1.5 -0.2
v -0.7 1.6 -0.2
v -0.6 1 -0.2
v -0.6 1.3 -0.2
v -0.6 1.5 -0.2
v -0.5 0.9 -0.2
v -0.5 1.3 -0.2
v -1.3 1 -0.3
v -1.3 1.3 -0.3
v -1.2 1.3 -0.3
v -1.2 1.5 -0.3
v -0.7 1.3 -0.3
v -0.7 1.5 -0.3
v -0.6 1 -0.3
v -0.6 1.3 -0.3
v -1.1 0 0.1
v -1 0 0.1
v -0.9 0 0.1
v -0.8 0 0.1
v -1.1 0 0
v -1 0 0
v -0.9 0 0
v -0.8 0 0
v -0.8 0.3 0.2
v -0.7 0.3 0.2
v -0.8 0.3 0.1
v -0.8 0.3 0
v -0.8 0.3 -0.1
v -0.7 0.3 -0.1
v -1.2 0.4 0.2
v -1 0.4 0.2
v -0.9 0.4 0.2
v -0.8 0.4 0.2
v -1.2 0.4 0.1
v -1.1 0.4 0.1
v -1 0.4 0.1
v -0.9 0.4 0.1
v -0.8 0.4 0.1
v -1.2 0.4 0
v -1.1 0.4 0
v -1 0.4 0
v -0.9 0.4 0
v -0.8 0.4 0
v -1.2 0.4 -0.1
v -0.8 0.4 -0.1
v -1.5 0.8 0.1
v -1.4 0.8 0.1
v -1.2 0.8 0.1
v -0.7 0.8 0.1
v -0.5 0.8 0.1
v -0.4 0.8 0.1
v -1.5 0.8 0
v -1.4 0.8 0
v -1.2 0.8 0
v -0.7 0.8 0
v -0.5 0.8 0
v -0.4 0.8 0
v -1.4 0.9 0.4
v -1.3 0.9 0.4
v -0.6 0.9 0.4
v -0.5 0.9 0.4
v -1.4 0.9 0.3
v -1.3 0.9 0.3
v -0.6 0.9 0.3
v -0.5 0.9 0.3
v -1.4 0.9 -0.1
v -1.2 0.9 -0.1
v -1 0.9 -0.1
v -0.8 0.9 -0.1
v -0.7 0.9 -0.1
v -0.5 0.9 -0.1
v -1.4 0.9 -0.2
v -0.5 0.9 -0.2
v -1.4 1 0.3
v -1.3 1 0.3
v -0.6 1 0.3
v -0.5 1 0.3
v -0.7 1 0.2
v -0.6 1 0.2
v -1 1 0.1
v -0.9 1 0.1
v -1.3 1 0
v -1.2 1 0
v -1 1 0
v -0.9 1 0
v -1.4 1 -0.1
v -1.3 1 -0.1
v -1.2 1 -0.1
v -0.7 1 -0.1
v -0.5 1 -0.1
v -1.3 1 -0.2
v -0.6 1 -0.2
v -1.3 1 -0.3
v -0.6 1 -0.3
v -1.3 1.3 0.4
v -1.2 1.3 0.4
v -0.7 1.3 0.4
v -0.6 1.3 0.4
v -1.3 1.3 0.3
v -1.2 1.3 0.3
v -0.7 1.3 0.3
v -0.6 1.3 0.3
v -1.2 1.4 0.4
v -1.1 1.4 0.4
v -0.8 1.4 0.4
v -0.7 1.4 0.4
v -1.2 1.4 0.3
v -1.1 1.4 0.3
v -0.8 1.4 0.3
v -0.7 1.4 0.3
v -1.1 1.5 0.4
v -0.8 1.5 0.4
v -1.1 1.5 0.3
v -0.8 1.5 0.3
v -1.2 0.9 0.2
v -1 0.9 0.2
v -0.9 0.9 0.2
v -0.8 0.9 0.2
v -0.7 0.9 0.2
v -1.5 0.9 0.1
v -1.4 0.9 0.1
v -1.2 0.9 0.1
v -1.1 0.9 0.1
v -1 0.9 0.1
v -0.9 0.9 0.1
v -0.8 0.9 0.1
v -0.7 0.9 0.1
v -0.5 0.9 0.1
v -0.4 0.9 0.1
v -1.5 0.9 0
v -1.4 0.9 0
v -1.2 0.9 0
v -1.1 0.9 0
v -1 0.9 0
v -0.9 0.9 0
v -0.8 0.9 0
v -0.7 0.9 0
v -0.5 0.9 0
v -0.4 0.9 0
v -1.2 0.9 -0.1
v -1 0.9 -0.1
v -0.8 0.9 -0.1
v -0.7 0.9 -0.1
v -1.4 1.3 -0.1
v -1.3 1.3 -0.1
v -0.6 1.3 -0.1
v -0.5 1.3 -0.1
v -1.4 1.3 -0.2
v -1.3 1.3 -0.2
v -1.2 1.3 -0.2
v -0.7 1.3 -0.2
v -0.6 1.3 -0.2
v -0.5 1.3 -0.2
v -1.3 1.3 -0.3
v -1.2 1.3 -0.3
v -0.7 1.3 -0.3
v -0.6 1.3 -0.3
v -1.4 1.5 0.4
v -1.3 1.5 0.4
v -0.6 1.5 0.4
v -0.5 1.5 0.4
v -1.4 1.5 0.3
v -1.3 1.5 0.3
v -0.6 1.5 0.3
v -0.5 1.5 0.3
v -1.4 1.5 0.2
v -1.3 1.5 0.2
v -0.6 1.5 0.2
v -0.5 1.5 0.2
v -1.4 1.5 -0.1
v -1.3 1.5 -0.1
v -1.2 1.5 -0.1
v -0.7 1.5 -0.1
v -0.6 1.5 -0.1
v -0.5 1.5 -0.1
v -1.3 1.5 -0.2
v -1.2 1.5 -0.2
v -0.7 1.5 -0.2
v -0.6 1.5 -0.2
v -1.2 1.5 -0.3
v -0.7 1.5 -0.3
v -1.3 1.6 0.4
v -1.2 1.6 0.4
v -0.7 1.6 0.4
v -0.6 1.6 0.4
v -1.4 1.6 0.3
v -1.3 1.6 0.3
v -1.2 1.6 0.3
v -0.7 1.6 0.3
v -0.6 1.6 0.3
v -0.5 1.6 0.3
v -1.4 1.6 0.2
v -1.3 1.6 0.2
v -1.2 1.6 0.2
v -0.7 1.6 0.2
v -0.6 1.6 0.2
v -0.5 1.6 0.2
v -1.3 1.6 -0.1
v -1.2 1.6 -0.1
v -0.7 1.6 -0.1
v -0.6 1.6 -0.1
v -1.2 1.6 -0.2
v -0.7 1.6 -0.2
v -1.2 1.7 0.4
v -0.7 1.7 0.4
v -1.3 1.7 0.3
v -1.2 1.7 0.3
v -0.7 1.7 0.3
v -0.6 1.7 0.3
v -1.3 1.7 0.2
v -1.2 1.7 0.2
v -0.7 1.7 0.2
v -0.6 1.7 0.2
v -1.2 1.7 -0.1
v -0.7 1.7 -0.1

# faces
f 3/2/1 2/2/1 1/2/1
f 4/2/1 2/2/1 3/2/1
f 9/8/1 6/8/1 5/8/1
f 10/8/1 8/8/1 7/8/1
f 11/8/1 8/8/1 10/8/1
f 11/8/1 10/8/1 9/8/1
f 12/8/1 8/8/1 11/8/1
f 13/8/1 9/8/1 5/8/1
f 13/8/1 11/8/1 9/8/1
f 14/8/1 11/8/1 13/8/1
f 15/8/1 11/8/1 14/8/1
f 16/8/1 11/8/1 15/8/1
f 17/8/1 15/8/1 14/8/1
f 18/8/1 15/8/1 17/8/1
f 22/8/1 20/8/1 19/8/1
f 23/8/1 20/8/1 22/8/1
f 27/8/1 22/8/1 21/8/1
f 28/8/1 22/8/1 27/8/1
f 29/8/1 25/8/1 24/8/1
f 30/8/1 25/8/1 29/8/1
f 31/8/1 27/8/1 26/8/1
f 32/8/1 27/8/1 31/8/1
f 33/8/1 31/8/1 30/8/1
f 34/8/1 31/8/1 33/8/1
f 39/6/1 36/6/1 35/6/1
f 39/3/1 37/3/1 36/3/1
f 40/6/1 38/6/1 37/6/1
f 40/3/1 37/3/1 39/3/1
f 41/6/1 39/6/1 35/6/1
f 41/6/1 40/6/1 39/6/1
f 42/6/1 40/6/1 41/6/1
f 43/6/1 38/6/1 40/6/1
f 43/6/1 40/6/1 42/6/1
f 44/6/1 38/6/1 43/6/1
f 45/10/1 42/10/1 41/10/1
f 46/10/1 42/10/1 45/10/1
f 47/10/1 44/10/1 43/10/1
f 48/10/1 44/10/1 47/10/1
f 52/8/1 50/8/1 49/8/1
f 53/8/1 50/8/1 52/8/1
f 57/8/1 52/8/1 51/8/1
f 58/8/1 52/8/1 57/8/1
f 59/8/1 55/8/1 54/8/1
f 60/8/1 55/8/1 59/8/1
f 61/8/1 57/8/1 56/8/1
f 62/8/1 57/8/1 61/8/1
f 65/12/1 64/12/1 63/12/1
f 66/12/1 64/12/1 65/12/1
f 67/6/1 66/6/1 65/6/1
f 68/6/1 66/6/1 67/6/1
f 71/2/1 70/2/1 69/2/1
f 72/2/1 70/2/1 71/2/1
f 75/12/1 74/12/1 73/12/1
f 76/12/1 74/12/1 75/12/1
f 77/6/1 76/6/1 75/6/1
f 78/6/1 76/6/1 77/6/1
f 83/10/1 80/10/1 79/10/1
f 84/10/1 80/10/1 83/10/1
f 85/10/1 82/10/1 81/10/1
f 86/10/1 82/10/1 85/10/1
f 89/8/1 88/8/1 87/8/1
f 90/8/1 88/8/1 89/8/1
f 93/8/1 92/8/1 91/8/1
f 94/8/1 92/8/1 93/8/1
f 97/8/1 96/8/1 95/8/1
f 98/8/1 97/8/1 95/8/1
f 99/8/1 97/8/1 98/8/1
f 100/8/2 101/8/2 102/8/2
f 100/8/2 102/8/2 103/8/2
f 103/8/2 102/8/2 104/8/2
f 105/8/2 106/8/2 107/8/2
f 107/8/2 106/8/2 108/8/2
f 109/8/2 110/8/2 111/8/2
f 111/8/2 110/8/2 112/8/2
f 113/12/2 114/12/2 115/12/2
f 115/12/2 114/12/2 116/12/2
f 115/6/2 116/6/2 117/6/2
f 117/6/2 116/6/2 118/6/2
f 119/2/2 120/2/2 121/2/2
f 121/2/2 120/2/2 122/2/2
f 123/12/2 124/12/2 125/12/2
f 125/12/2 124/12/2 126/12/2
f 125/6/2 126/6/2 127/6/2
f 127/6/2 126/6/2 128/6/2
f 129/10/2 130/10/2 131/10/2
f 131/10/2 130/10/2 132/10/2
f 131/6/2 132/6/2 133/6/2
f 133/6/2 132/6/2 134/6/2
f 133/7/2 134/7/2 135/7/2
f 134/6/2 132/6/2 135/6/2
f 135/6/2 132/6/2 136/6/2
f 136/6/2 132/6/2 137/6/2
f 133/7/2 135/7/2 138/7/2
f 138/7/2 135/7/2 139/7/2
f 136/7/2 137/7/2 140/7/2
f 140/7/2 137/7/2 141/7/2
f 142/8/2 143/8/2 145/8/2
f 145/8/2 143/8/2 146/8/2
f 144/8/2 145/8/2 150/8/2
f 150/8/2 145/8/2 151/8/2
f 147/8/2 148/8/2 152/8/2
f 152/8/2 148/8/2 153/8/2
f 149/8/2 150/8/2 154/8/2
f 154/8/2 150/8/2 155/8/2
f 156/8/2 157/8/2 159/8/2
f 159/8/2 157/8/2 160/8/2
f 158/8/2 159/8/2 164/8/2
f 164/8/2 159/8/2 165/8/2
f 161/8/2 162/8/2 166/8/2
f 166/8/2 162/8/2 167/8/2
f 163/8/2 164/8/2 168/8/2
f 168/8/2 164/8/2 169/8/2
f 167/8/2 168/8/2 170/8/2
f 170/8/2 168/8/2 171/8/2
f 172/8/2 173/8/2 176/8/2
f 174/8/2 175/8/2 177/8/2
f 177/8/2 175/8/2 178/8/2
f 176/8/2 177/8/2 178/8/2
f 178/8/2 175/8/2 179/8/2
f 172/8/2 176/8/2 180/8/2
f 176/8/2 178/8/2 180/8/2
f 180/8/2 178/8/2 181/8/2
f 181/8/2 178/8/2 182/8/2
f 182/8/2 178/8/2 183/8/2
f 181/8/2 182/8/2 184/8/2
f 184/8/2 182/8/2 185/8/2
f 186/2/2 187/2/2 188/2/2
f 188/2/2 187/2/2 189/2/2
f 192/8/3 191/8/3 190/8/3
f 193/8/3 191/8/3 192/8/3
f 194/8/3 191/8/3 193/8/3
f 196/8/3 195/8/3 194/8/3
f 196/8/3 194/8/3 193/8/3
f 197/8/3 195/8/3 196/8/3
f 198/8/3 195/8/3 197/8/3
f 200/8/3 199/8/3 198/8/3
f 200/8/3 198/8/3 197/8/3
f 201/8/3 199/8/3 200/8/3
f 203/8/3 199/8/3 201/8/3
f 205/8/3 203/8/3 202/8/3
f 206/8/3 199/8/3 203/8/3
f 206/8/3 203/8/3 205/8/3
f 207/8/3 199/8/3 206/8/3
f 209/8/3 205/8/3 204/8/3
f 209/8/3 206/8/3 205/8/3
f 210/8/3 206/8/3 209/8/3
f 211/8/3 206/8/3 210/8/3
f 212/8/3 209/8/3 208/8/3
f 212/8/3 210/8/3 209/8/3
f 213/8/3 210/8/3 212/8/3
f 218/8/3 215/8/3 214/8/3
f 219/8/3 215/8/3 218/8/3
f 221/2/3 217/2/3 216/2/3
f 222/2/3 217/2/3 221/2/3
f 223/2/3 217/2/3 222/2/3
f 225/8/3 220/8/3 219/8/3
f 226/8/3 220/8/3 225/8/3
f 227/2/3 221/2/3 216/2/3
f 227/9/3 222/9/3 221/9/3
f 228/12/3 223/12/3 222/12/3
f 228/9/3 222/9/3 227/9/3
f 229/2/3 224/2/3 223/2/3
f 229/12/3 223/12/3 228/12/3
f 230/2/3 224/2/3 229/2/3
f 232/2/3 228/2/3 227/2/3
f 232/2/3 231/2/3 230/2/3
f 232/2/3 230/2/3 229/2/3
f 232/2/3 229/2/3 228/2/3
f 232/2/3 227/2/3 216/2/3
f 233/2/3 231/2/3 232/2/3
f 234/2/3 231/2/3 233/2/3
f 235/2/3 231/2/3 234/2/3
f 236/2/3 231/2/3 235/2/3
f 237/2/3 232/2/3 216/2/3
f 237/9/3 233/9/3 232/9/3
f 238/12/3 234/12/3 233/12/3
f 238/9/3 233/9/3 237/9/3
f 239/2/3 235/2/3 234/2/3
f 239/12/3 234/12/3 238/12/3
f 240/2/3 235/2/3 239/2/3
f 243/2/3 238/2/3 237/2/3
f 243/2/3 239/2/3 238/2/3
f 243/2/3 237/2/3 216/2/3
f 244/2/3 239/2/3 243/2/3
f 246/8/3 242/8/3 241/8/3
f 247/8/3 242/8/3 246/8/3
f 248/8/3 246/8/3 245/8/3
f 249/8/3 246/8/3 248/8/3
f 253/6/3 251/6/3 250/6/3
f 254/10/3 252/10/3 251/10/3
f 254/6/3 251/6/3 253/6/3
f 255/6/3 253/6/3 250/6/3
f 256/6/3 253/6/3 255/6/3
f 257/6/3 253/6/3 256/6/3
f 258/10/3 254/10/3 253/10/3
f 258/6/3 253/6/3 257/6/3
f 259/10/3 252/10/3 254/10/3
f 259/10/3 254/10/3 258/10/3
f 260/10/3 252/10/3 259/10/3
f 261/3/3 256/3/3 255/3/3
f 262/6/3 257/6/3 256/6/3
f 262/3/3 256/3/3 261/3/3
f 263/3/3 258/3/3 257/3/3
f 263/6/3 257/6/3 262/6/3
f 264/10/3 259/10/3 258/10/3
f 264/3/3 258/3/3 263/3/3
f 265/3/3 260/3/3 259/3/3
f 265/10/3 259/10/3 264/10/3
f 266/3/3 260/3/3 265/3/3
f 268/6/3 262/6/3 261/6/3
f 269/10/3 263/10/3 262/10/3
f 269/10/3 264/10/3 263/10/3
f 269/6/3 262/6/3 268/6/3
f 270/10/3 264/10/3 269/10/3
f 271/11/3 265/11/3 264/11/3
f 271/10/3 264/10/3 270/10/3
f 272/1/3 266/1/3 265/1/3
f 272/11/3 265/11/3 271/11/3
f 273/1/3 266/1/3 272/1/3
f 274/10/3 268/10/3 267/10/3
f 274/10/3 270/10/3 269/10/3
f 274/10/3 269/10/3 268/10/3
f 275/6/3 271/6/3 270/6/3
f 275/10/3 270/10/3 274/10/3
f 276/7/3 273/7/3 272/7/3
f 276/6/3 271/6/3 275/6/3
f 276/7/3 272/7/3 271/7/3
f 277/7/3 273/7/3 276/7/3
f 280/2/3 279/2/3 278/2/3
f 281/2/3 279/2/3 280/2/3
f 282/6/3 281/6/3 280/6/3
f 283/6/3 281/6/3 282/6/3
f 287/12/3 285/12/3 284/12/3
f 288/6/3 286/6/3 285/6/3
f 288/12/3 285/12/3 287/12/3
f 289/6/3 286/6/3 288/6/3
f 295/2/3 291/2/3 290/2/3
f 296/2/3 291/2/3 295/2/3
f 297/12/3 293/12/3 292/12/3
f 298/6/3 294/6/3 293/6/3
f 298/12/3 293/12/3 297/12/3
f 299/6/3 294/6/3 298/6/3
f 300/6/3 294/6/3 299/6/3
f 303/6/3 302/6/3 301/6/3
f 304/6/3 302/6/3 303/6/3
f 305/2/3 304/2/3 303/2/3
f 306/2/3 304/2/3 305/2/3
f 309/8/3 308/8/3 307/8/3
f 310/8/3 309/8/3 307/8/3
f 311/8/3 309/8/3 310/8/3
f 312/8/3 311/8/3 310/8/3
f 313/8/3 311/8/3 312/8/3
f 314/8/3 311/8/3 313/8/3
f 315/8/3 311/8/3 314/8/3
f 316/8/3 315/8/3 314/8/3
f 317/8/3 315/8/3 316/8/3
f 318/8/4 319/8/4 320/8/4
f 320/8/4 319/8/4 321/8/4
f 322/8/4 323/8/4 324/8/4
f 324/8/4 323/8/4 325/8/4
f 326/8/4 327/8/4 328/8/4
f 328/8/4 327/8/4 329/8/4
f 329/8/4 330/8/4 331/8/4
f 331/8/4 330/8/4 332/8/4
f 333/8/4 334/8/4 336/8/4
f 336/8/4 334/8/4 337/8/4
f 335/8/4 336/8/4 338/8/4
f 338/8/4 336/8/4 339/8/4
f 340/2/4 341/2/4 342/2/4
f 342/2/4 341/2/4 343/2/4
f 342/6/4 343/6/4 344/6/4
f 344/6/4 343/6/4 345/6/4
f 346/12/4 347/12/4 349/12/4
f 347/6/4 348/6/4 350/6/4
f 349/12/4 347/12/4 350/12/4
f 350/6/4 348/6/4 351/6/4
f 352/2/4 353/2/4 357/2/4
f 357/2/4 353/2/4 358/2/4
f 354/12/4 355/12/4 359/12/4
f 355/6/4 356/6/4 360/6/4
f 359/12/4 355/12/4 360/12/4
f 360/6/4 356/6/4 361/6/4
f 361/6/4 356/6/4 362/6/4
f 363/6/4 364/6/4 365/6/4
f 365/6/4 364/6/4 366/6/4
f 365/2/4 366/2/4 367/2/4
f 367/2/4 366/2/4 368/2/4
f 369/8/4 370/8/4 371/8/4
f 371/8/4 370/8/4 372/8/4
f 372/8/4 373/8/4 377/8/4
f 377/8/4 373/8/4 378/8/4
f 374/6/4 375/6/4 380/6/4
f 375/10/4 376/10/4 381/10/4
f 380/6/4 375/6/4 381/6/4
f 374/6/4 380/6/4 382/6/4
f 380/10/4 381/10/4 383/10/4
f 382/6/4 380/6/4 383/6/4
f 381/10/4 376/10/4 384/10/4
f 383/10/4 381/10/4 384/10/4
f 384/10/4 376/10/4 385/10/4
f 374/6/4 382/6/4 386/6/4
f 382/10/4 383/10/4 387/10/4
f 386/6/4 382/6/4 387/6/4
f 383/10/4 384/10/4 387/10/4
f 387/10/4 384/10/4 388/10/4
f 384/6/4 385/6/4 389/6/4
f 388/10/4 384/10/4 389/10/4
f 374/6/4 386/6/4 391/6/4
f 387/10/4 388/10/4 392/10/4
f 386/10/4 387/10/4 392/10/4
f 391/6/4 386/6/4 392/6/4
f 392/10/4 388/10/4 393/10/4
f 388/6/4 389/6/4 394/6/4
f 393/10/4 388/10/4 394/10/4
f 389/6/4 385/6/4 395/6/4
f 394/6/4 389/6/4 395/6/4
f 395/6/4 385/6/4 396/6/4
f 390/10/4 391/10/4 397/10/4
f 392/10/4 393/10/4 397/10/4
f 391/10/4 392/10/4 397/10/4
f 393/6/4 394/6/4 398/6/4
f 397/10/4 393/10/4 398/10/4
f 394/6/4 395/6/4 398/6/4
f 395/7/4 396/7/4 399/7/4
f 398/6/4 395/6/4 399/6/4
f 399/7/4 396/7/4 400/7/4
f 378/8/4 379/8/4 402/8/4
f 402/8/4 379/8/4 403/8/4
f 401/8/4 402/8/4 405/8/4
f 405/8/4 402/8/4 406/8/4
f 404/8/4 405/8/4 407/8/4
f 407/8/4 405/8/4 408/8/4
f 409/8/4 410/8/4 411/8/4
f 411/8/4 410/8/4 412/8/4
f 412/8/4 413/8/4 414/8/4
f 414/8/4 413/8/4 415/8/4
f 415/8/4 416/8/4 418/8/4
f 418/8/4 416/8/4 419/8/4
f 409/8/4 411/8/4 420/8/4
f 417/8/4 418/8/4 421/8/4
f 421/8/4 418/8/4 422/8/4
f 409/8/4 420/8/4 423/8/4
f 420/8/4 421/8/4 423/8/4
f 423/8/4 421/8/4 424/8/4
f 425/8/4 426/8/4 427/8/4
f 425/8/4 427/8/4 429/8/4
f 427/8/4 428/8/4 429/8/4
f 429/8/4 428/8/4 430/8/4
f 425/8/4 429/8/4 431/8/4
f 431/8/4 429/8/4 432/8/4
f 437/12/5 434/12/5 433/12/5
f 438/12/5 434/12/5 437/12/5
f 439/12/5 436/12/5 435/12/5
f 440/12/5 436/12/5 439/12/5
f 443/10/5 442/10/5 441/10/5
f 444/10/5 442/10/5 443/10/5
f 445/10/5 442/10/5 444/10/5
f 446/10/5 442/10/5 445/10/5
f 451/6/5 448/6/5 447/6/5
f 452/6/5 448/6/5 451/6/5
f 453/3/5 449/3/5 448/3/5
f 453/6/5 448/6/5 452/6/5
f 454/6/5 450/6/5 449/6/5
f 454/3/5 449/3/5 453/3/5
f 455/6/5 450/6/5 454/6/5
f 456/3/5 452/3/5 451/3/5
f 457/3/5 452/3/5 456/3/5
f 458/6/5 454/6/5 453/6/5
f 459/6/5 454/6/5 458/6/5
f 461/6/5 457/6/5 456/6/5
f 461/6/5 460/6/5 459/6/5
f 461/6/5 459/6/5 458/6/5
f 461/6/5 458/6/5 457/6/5
f 462/6/5 460/6/5 461/6/5
f 469/2/5 464/2/5 463/2/5
f 470/6/5 465/6/5 464/6/5
f 470/2/5 464/2/5 469/2/5
f 471/6/5 465/6/5 470/6/5
f 472/6/5 467/6/5 466/6/5
f 473/2/5 468/2/5 467/2/5
f 473/6/5 467/6/5 472/6/5
f 474/2/5 468/2/5 473/2/5
f 479/8/5 476/8/5 475/8/5
f 480/8/5 476/8/5 479/8/5
f 481/8/5 478/8/5 477/8/5
f 482/8/5 478/8/5 481/8/5
f 489/8/5 484/8/5 483/8/5
f 489/8/5 488/8/5 487/8/5
f 489/8/5 487/8/5 486/8/5
f 489/8/5 486/8/5 485/8/5
f 489/8/5 485/8/5 484/8/5
f 490/8/5 488/8/5 489/8/5
f 495/2/5 493/2/5 492/2/5
f 496/8/5 494/8/5 493/8/5
f 496/2/5 493/2/5 495/2/5
f 497/2/5 495/2/5 492/2/5
f 498/2/5 495/2/5 497/2/5
f 499/8/5 492/8/5 491/8/5
f 499/2/5 497/2/5 492/2/5
f 500/2/5 497/2/5 499/2/5
f 501/2/5 497/2/5 500/2/5
f 502/2/5 495/2/5 498/2/5
f 503/8/5 499/8/5 491/8/5
f 504/4/5 500/4/5 499/4/5
f 504/8/5 499/8/5 503/8/5
f 505/2/5 501/2/5 500/2/5
f 505/4/5 500/4/5 504/4/5
f 505/2/5 502/2/5 501/2/5
f 506/8/5 496/8/5 495/8/5
f 506/2/5 502/2/5 505/2/5
f 506/2/5 495/2/5 502/2/5
f 507/8/5 494/8/5 496/8/5
f 507/8/5 496/8/5 506/8/5
f 510/8/5 509/8/5 508/8/5
f 511/8/5 509/8/5 510/8/5
f 516/8/5 513/8/5 512/8/5
f 517/8/5 513/8/5 516/8/5
f 518/8/5 515/8/5 514/8/5
f 519/8/5 515/8/5 518/8/5
f 524/8/5 521/8/5 520/8/5
f 525/8/5 521/8/5 524/8/5
f 526/8/5 523/8/5 522/8/5
f 527/8/5 523/8/5 526/8/5
f 530/8/5 529/8/5 528/8/5
f 531/8/5 529/8/5 530/8/5
f 532/10/6 533/10/6 539/10/6
f 539/10/6 533/10/6 540/10/6
f 533/3/6 534/3/6 541/3/6
f 540/10/6 533/10/6 541/10/6
f 534/1/6 535/1/6 542/1/6
f 541/3/6 534/3/6 542/3/6
f 535/7/6 536/7/6 543/7/6
f 542/1/6 535/1/6 543/1/6
f 543/7/6 536/7/6 544/7/6
f 537/2/6 538/2/6 547/2/6
f 538/6/6 539/6/6 548/6/6
f 547/2/6 538/2/6 548/2/6
f 539/10/6 540/10/6 549/10/6
f 548/6/6 539/6/6 549/6/6
f 540/5/6 541/5/6 550/5/6
f 549/10/6 540/10/6 550/10/6
f 550/5/6 541/5/6 551/5/6
f 542/5/6 543/5/6 552/5/6
f 543/7/6 544/7/6 553/7/6
f 552/5/6 543/5/6 553/5/6
f 544/6/6 545/6/6 554/6/6
f 553/7/6 544/7/6 554/7/6
f 545/2/6 546/2/6 555/2/6
f 554/6/6 545/6/6 555/6/6
f 555/2/6 546/2/6 556/2/6
f 550/10/6 551/10/6 557/10/6
f 549/10/6 550/10/6 557/10/6
f 552/6/6 553/6/6 558/6/6
f 557/10/6 551/10/6 558/10/6
f 551/6/6 552/6/6 558/6/6
f 553/7/6 554/7/6 559/7/6
f 558/6/6 553/6/6 559/6/6
f 559/7/6 554/7/6 560/7/6
f 561/8/6 562/8/6 565/8/6
f 565/8/6 562/8/6 566/8/6
f 563/8/6 564/8/6 569/8/6
f 569/8/6 564/8/6 570/8/6
f 566/8/6 567/8/6 571/8/6
f 571/8/6 567/8/6 572/8/6
f 568/8/6 569/8/6 573/8/6
f 573/8/6 569/8/6 574/8/6
f 575/8/6 576/8/6 579/8/6
f 579/8/6 576/8/6 580/8/6
f 577/8/6 578/8/6 581/8/6
f 581/8/6 578/8/6 582/8/6
f 583/8/6 584/8/6 587/8/6
f 587/8/6 584/8/6 588/8/6
f 585/8/6 586/8/6 591/8/6
f 591/8/6 586/8/6 592/8/6
f 588/8/6 589/8/6 593/8/6
f 593/8/6 589/8/6 594/8/6
f 590/8/6 591/8/6 595/8/6
f 595/8/6 591/8/6 596/8/6
f 594/8/6 595/8/6 597/8/6
f 597/8/6 595/8/6 598/8/6
f 599/8/6 600/8/6 604/8/6
f 604/8/6 600/8/6 605/8/6
f 601/8/6 602/8/6 606/8/6
f 606/8/6 602/8/6 607/8/6
f 603/8/6 604/8/6 609/8/6
f 609/8/6 604/8/6 610/8/6
f 607/8/6 608/8/6 613/8/6
f 613/8/6 608/8/6 614/8/6
f 610/8/6 611/8/6 615/8/6
f 615/8/6 611/8/6 616/8/6
f 612/8/6 613/8/6 617/8/6
f 617/8/6 613/8/6 618/8/6
f 616/8/6 617/8/6 619/8/6
f 619/8/6 617/8/6 620/8/6
f 621/8/6 622/8/6 624/8/6
f 624/8/6 622/8/6 625/8/6
f 623/8/6 624/8/6 627/8/6
f 625/8/6 626/8/6 627/8/6
f 624/8/6 625/8/6 627/8/6
f 627/8/6 626/8/6 628/8/6
f 628/8/6 626/8/6 629/8/6
f 629/8/6 626/8/6 630/8/6
f 628/8/6 629/8/6 631/8/6
f 631/8/6 629/8/6 632/8/6
